<svg xmlns="http://www.w3.org/2000/svg" viewBox="0 9.470000267028809 138.5500030517578 46.31999969482422" data-asc="0.9052734375" width="138.5500030517578" height="46.31999969482422"><defs/><g fill="#000000"><g transform="translate(0, 0)"><path d="M0 45.26L0 9.47L13.50 9.47Q17.07 9.47 18.95 9.81Q21.58 10.25 23.36 11.49Q25.15 12.72 26.23 14.94Q27.32 17.16 27.32 19.82Q27.32 24.39 24.41 27.55Q21.51 30.71 13.92 30.71L4.74 30.71L4.74 45.26L0 45.26M4.74 26.49L13.99 26.49Q18.58 26.49 20.51 24.78Q22.44 23.07 22.44 19.97Q22.44 17.72 21.30 16.13Q20.17 14.53 18.31 14.01Q17.11 13.70 13.89 13.70L4.74 13.70L4.74 26.49ZM32.69 45.26L32.69 9.47L37.08 9.47L37.08 45.26L32.69 45.26ZM60.82 42.07Q58.37 44.14 56.12 45.00Q53.86 45.85 51.27 45.85Q47.00 45.85 44.70 43.76Q42.41 41.67 42.41 38.43Q42.41 36.52 43.27 34.95Q44.14 33.37 45.54 32.42Q46.95 31.47 48.71 30.98Q50 30.64 52.61 30.32Q57.93 29.69 60.45 28.81Q60.47 27.91 60.47 27.66Q60.47 24.98 59.23 23.88Q57.54 22.39 54.22 22.39Q51.12 22.39 49.65 23.47Q48.17 24.56 47.46 27.32L43.16 26.73Q43.75 23.97 45.09 22.28Q46.44 20.58 48.97 19.67Q51.51 18.75 54.86 18.75Q58.18 18.75 60.25 19.53Q62.33 20.31 63.31 21.50Q64.28 22.68 64.67 24.49Q64.89 25.61 64.89 28.54L64.89 34.40Q64.89 40.53 65.17 42.15Q65.45 43.77 66.28 45.26L61.69 45.26Q61.01 43.90 60.82 42.07M60.45 32.25Q58.06 33.23 53.27 33.91Q50.56 34.30 49.44 34.79Q48.32 35.28 47.71 36.22Q47.09 37.16 47.09 38.31Q47.09 40.06 48.43 41.24Q49.76 42.41 52.32 42.41Q54.86 42.41 56.84 41.30Q58.81 40.19 59.74 38.26Q60.45 36.77 60.45 33.86L60.45 32.25ZM71.51 55.25L71.02 51.12Q72.46 51.51 73.54 51.51Q75 51.51 75.88 51.03Q76.76 50.54 77.32 49.66Q77.73 49.00 78.66 46.39Q78.78 46.02 79.05 45.31L69.21 19.34L73.95 19.34L79.35 34.35Q80.40 37.21 81.23 40.36Q81.98 37.33 83.03 34.45L88.57 19.34L92.97 19.34L83.11 45.70Q81.52 49.98 80.64 51.59Q79.47 53.76 77.95 54.77Q76.44 55.79 74.34 55.79Q73.07 55.79 71.51 55.25ZM114.45 36.91L118.99 37.48Q117.92 41.46 115.01 43.65Q112.11 45.85 107.59 45.85Q101.90 45.85 98.57 42.35Q95.24 38.84 95.24 32.52Q95.24 25.98 98.61 22.36Q101.98 18.75 107.35 18.75Q112.55 18.75 115.84 22.29Q119.14 25.83 119.14 32.25Q119.14 32.64 119.12 33.42L99.78 33.42Q100.02 37.70 102.20 39.97Q104.37 42.24 107.62 42.24Q110.03 42.24 111.74 40.97Q113.45 39.70 114.45 36.91M100.02 29.81L114.50 29.81Q114.21 26.54 112.84 24.90Q110.74 22.36 107.40 22.36Q104.37 22.36 102.31 24.39Q100.24 26.42 100.02 29.81ZM124.46 45.26L124.46 19.34L128.42 19.34L128.42 23.27Q129.93 20.51 131.21 19.63Q132.50 18.75 134.03 18.75Q136.25 18.75 138.55 20.17L137.04 24.24Q135.42 23.29 133.81 23.29Q132.37 23.29 131.23 24.16Q130.08 25.02 129.59 26.56Q128.86 28.91 128.86 31.69L128.86 45.26L124.46 45.26Z"/></g></g></svg>